# xmcd CD database file
#
# Track frame offsets:
#	150
#	16571
#	29333
#	47095
#	64885
#	85549
#	102127
#	113992
#	131517
#	148055
#	171970
#	190544
#	206427
#	232042
#
# Disc length: 3393 seconds
#
# Revision: 0
# Processed by: cddbd v1.5PL3 Copyright (c) Steve Scherf et al.
# Submitted via: CDex 1.51
#
DISCID=b40d3f0e
DTITLE=Cross Canadian Ragweed - Soul Gravy
DYEAR=2004
DGENRE=Country
TTITLE0=Number
TTITLE1=Again
TTITLE2=Lonely Girl
TTITLE3=Cold Hearted Woman
TTITLE4=Sick and Tired
TTITLE5=Hammer Down
TTITLE6=Flowers
TTITLE7=Leave Me Alone
TTITLE8=Down
TTITLE9=Wanna Rock 'n' Roll
TTITLE10=Alabama
TTITLE11=Pay
TTITLE12=Too Far Gone
TTITLE13=Stranglehold
EXTD=YEAR: 2004
EXTT0=
EXTT1=
EXTT2=
EXTT3=
EXTT4=
EXTT5=
EXTT6=
EXTT7=
EXTT8=
EXTT9=
EXTT10=
EXTT11=
EXTT12=
EXTT13=
PLAYORDER=
